<?xml version="1.0" encoding="UTF-8"?>
<svg version="1.1" xmlns="http://www.w3.org/2000/svg" width="1024" height="1024">
<path d="M0 0 C0.89548553 -0.00953201 1.79097107 -0.01906403 2.71359253 -0.02888489 C3.67709625 -0.02797348 4.64059998 -0.02706207 5.63330078 -0.02612305 C6.63765167 -0.03040817 7.64200256 -0.0346933 8.67678833 -0.03910828 C10.80681608 -0.04485206 12.93686345 -0.04535148 15.06689453 -0.04101562 C18.28209326 -0.03788706 21.49634293 -0.06120441 24.71142578 -0.08666992 C51.24328391 -0.17050579 67.81074341 8.10333417 89.26416016 23.0637207 C94.48181881 26.68061574 99.74345765 30.23225518 105.0022583 33.78894043 C114.9079328 40.4911523 124.79066511 47.22598335 134.63378906 54.01977539 C136.59177516 55.36992948 138.5517517 56.7171547 140.51220703 58.0637207 C141.19557129 58.53310059 141.87893555 59.00248047 142.58300781 59.48608398 C143.9342383 60.41415333 145.28547508 61.34221352 146.63671875 62.27026367 C149.85579242 64.48282589 153.07085999 66.70083428 156.27783203 68.9309082 C156.87764893 69.34775879 157.47746582 69.76460938 158.09545898 70.1940918 C159.72348297 71.32653051 161.35030862 72.46069143 162.97705078 73.5949707 C165.31595674 75.26080255 165.31595674 75.26080255 167.45361328 76.2746582 C166.23524335 79.92976798 165.1909306 80.34915216 162.01611328 82.3996582 C145.19136791 93.89497429 134.4552874 109.27130997 125.45361328 127.2746582 C117.9007978 126.67599205 110.45575643 125.74660468 102.97314453 124.56762695 C100.755392 124.22597925 98.5375327 123.88502406 96.31958008 123.54467773 C95.16936371 123.36761292 94.01914734 123.1905481 92.83407593 123.00811768 C35.44343187 114.22636493 -22.4865131 109.62145267 -80.54638672 113.2746582 C-80.76414735 115.323251 -80.76414735 115.323251 -79.36669922 116.6418457 C-70.61106535 124.42911453 -61.67962498 125.86203434 -50.24026489 125.94598389 C-47.97054006 125.96271738 -45.70218438 126.0031614 -43.43286133 126.04858398 C-39.31660843 126.12740769 -35.20032225 126.18598021 -31.0836792 126.24005127 C99.95906621 128.02738467 99.95906621 128.02738467 122.45361328 139.2746582 C122.38142578 140.07645508 122.30923828 140.87825195 122.23486328 141.7043457 C120.09202839 167.9540731 121.62409729 192.58366672 135.81689453 215.4543457 C137.23216942 217.89307713 137.86659299 219.58279722 138.45361328 222.2746582 C99.51389049 222.44803499 60.57413637 222.61068329 21.6343096 222.75897113 C17.03566574 222.77649254 12.43702222 222.79410264 7.83837891 222.81176758 C6.92288328 222.81528281 6.00738764 222.81879805 5.06414972 222.82241981 C-9.75363353 222.87952722 -24.57137734 222.94381767 -39.38911901 223.0107692 C-54.59684862 223.0793227 -69.80459502 223.1401419 -85.01238453 223.19380224 C-94.39413837 223.22714868 -103.77582726 223.26650612 -113.1575224 223.31358658 C-119.59349686 223.34530615 -126.02947243 223.36950362 -132.46549885 223.38783075 C-136.177074 223.39862052 -139.88855928 223.4126837 -143.60008049 223.43569374 C-147.62971389 223.46058898 -151.65923119 223.46962186 -155.68893433 223.47720337 C-157.43702339 223.49177832 -157.43702339 223.49177832 -159.22042739 223.50664771 C-165.90318286 223.50358826 -172.05449299 222.88457372 -178.54638672 221.2746582 C-178.54638672 220.6146582 -178.54638672 219.9546582 -178.54638672 219.2746582 C-179.20638672 219.2746582 -179.86638672 219.2746582 -180.54638672 219.2746582 C-182.46938348 216.10099061 -182.73967718 214.32118553 -181.92138672 210.7121582 C-181.76412109 209.94774414 -181.60685547 209.18333008 -181.44482422 208.39575195 C-180.27294482 205.62909754 -179.12053769 204.81659427 -176.54638672 203.2746582 C-173.71160889 202.87593079 -173.71160889 202.87593079 -170.40087891 202.84228516 C-169.15989441 202.822491 -167.91890991 202.80269684 -166.64031982 202.78230286 C-165.291302 202.77553365 -163.94228252 202.76908672 -162.59326172 202.76293945 C-161.20890714 202.74608885 -159.82456783 202.72793808 -158.44024658 202.70854187 C-154.80384084 202.6610765 -151.167497 202.63124512 -147.53088379 202.60510254 C-143.81717709 202.57527927 -140.10368359 202.52875509 -136.39013672 202.48364258 C-129.10899258 202.39764904 -121.82783288 202.3302866 -114.54638672 202.2746582 C-115.95347075 201.15360375 -117.36438416 200.03735481 -118.77685547 198.9230957 C-119.56213623 198.30096191 -120.34741699 197.67882812 -121.15649414 197.0378418 C-126.9375292 192.77278559 -132.75891254 190.29168693 -139.95092773 189.97802734 C-141.26395119 189.91946815 -141.26395119 189.91946815 -142.60350037 189.85972595 C-143.55531693 189.82263016 -144.50713348 189.78553436 -145.48779297 189.74731445 C-146.4943544 189.70598892 -147.50091583 189.66466339 -148.53797913 189.62208557 C-161.51527028 189.11934338 -174.49924322 188.92185022 -187.48388672 188.7121582 C-190.02881332 188.66881474 -192.57373525 188.6251964 -195.11865234 188.58129883 C-201.26118052 188.47592977 -207.40375669 188.37390257 -213.54638672 188.2746582 C-213.22580038 186.67056259 -212.90515008 185.06647975 -212.58447266 183.46240234 C-212.31663971 182.12248985 -212.31663971 182.12248985 -212.043396 180.75550842 C-211.67702931 178.92676815 -211.30781029 177.09859876 -210.93701172 175.27075195 C-207.82034256 151.36589953 -213.44135224 126.75095514 -227.79638672 107.2121582 C-229.01128056 105.86709716 -230.26475568 104.55628924 -231.54638672 103.2746582 C-234.23388672 100.3371582 -234.23388672 100.3371582 -236.54638672 97.2746582 C-236.21638672 96.2846582 -235.88638672 95.2946582 -235.54638672 94.2746582 C-223.2835602 92.11186517 -211.11732517 91.38133172 -198.69091797 91.0637207 C-197.98637985 91.04485306 -197.28184174 91.02598541 -196.55595398 91.00654602 C-192.97630026 90.91076198 -189.3969202 90.82404789 -185.81665039 90.75488281 C-174.89278649 90.50662981 -166.87023301 89.84691566 -158.54638672 82.2746582 C-157.90701172 81.4496582 -157.26763672 80.6246582 -156.60888672 79.7746582 C-152.85322467 75.22234057 -147.9427119 72.07343326 -142.35888672 70.2121582 C-137.8752536 70.31179449 -134.87903999 71.94200493 -131.73388672 75.0871582 C-130.14383158 78.01620715 -129.61103525 79.9129348 -129.54638672 83.2746582 C-131.09364147 87.70957023 -132.59815253 90.64250208 -136.54638672 93.2746582 C-136.21638672 94.2646582 -135.88638672 95.2546582 -135.54638672 96.2746582 C-130.71168616 98.50183765 -126.03553668 98.62653448 -120.81591797 98.72387695 C-119.98485031 98.74561478 -119.15378265 98.7673526 -118.29753113 98.78974915 C-116.54359269 98.83351053 -114.78953613 98.87274494 -113.03540039 98.90771484 C-110.3843395 98.96164046 -107.7341011 99.03203261 -105.08349609 99.10473633 C-90.01588711 100.4211353 -90.01588711 100.4211353 -76.48388672 95.9621582 C-72.53108708 90.47924258 -72.48229214 88.76190154 -71.54638672 81.2746582 C-81.11638672 81.2746582 -90.68638672 81.2746582 -100.54638672 81.2746582 C-102.66951405 74.90527621 -98.89054361 66.36621906 -96.25732422 60.30981445 C-90.72433127 50.27933283 -81.43031032 44.5692994 -70.79638672 41.0246582 C-58.92617452 38.47938853 -47.02989329 40.64856931 -36.67138672 46.9621582 C-29.15320252 52.46629672 -23.79212189 60.21685969 -21.54638672 69.2746582 C-21.15278353 73.01388848 -20.92500311 76.70794164 -20.81982422 80.46606445 C-20.68447266 81.85631836 -20.68447266 81.85631836 -20.54638672 83.2746582 C-19.88638672 83.6046582 -19.22638672 83.9346582 -18.54638672 84.2746582 C-16.62899891 83.54094328 -16.62899891 83.54094328 -14.60888672 82.3996582 C-12.22504014 81.12530284 -10.12753728 80.13504172 -7.54638672 79.2746582 C-6.45458534 77.41975806 -6.45458534 77.41975806 -5.54638672 75.2746582 C-5.16740234 74.69329102 -4.78841797 74.11192383 -4.39794922 73.51293945 C2.91950945 62.02406326 4.06651175 47.57159578 4.45361328 34.2746582 C3.54095703 34.46543945 2.62830078 34.6562207 1.68798828 34.8527832 C-2.5524675 35.40588613 -4.82496159 34.2785025 -8.54638672 32.2746582 C-11.3502965 28.06879353 -11.25116336 24.23722234 -11.54638672 19.2746582 C-11.60052734 18.40583008 -11.65466797 17.53700195 -11.71044922 16.6418457 C-11.8983257 11.05679022 -11.38426248 7.13958807 -8.54638672 2.2746582 C-5.6586342 0.42303277 -3.39671607 0.01996579 0 0 Z " fill="#E01A14" transform="translate(583.54638671875,387.725341796875)"/>
<path d="M0 0 C0.763125 0.36480469 1.52625 0.72960937 2.3125 1.10546875 C5.02013184 2.54076433 6.86565542 4.81714758 9 7 C10.32639605 8.15385672 11.66023013 9.29919929 13 10.4375 C16.41633123 13.38972586 19.20307823 16.46271659 22 20 C22.66 20.66 23.32 21.32 24 22 C32.85983147 35.84715382 37.74480315 49.61270773 39 66 C39.0721875 66.88171875 39.144375 67.7634375 39.21875 68.671875 C40.05017567 89.31894587 31.23156286 110.21449721 17.5625 125.25 C15.73404718 127.19476975 13.87429335 129.09838459 12 131 C11.34257812 131.6703125 10.68515625 132.340625 10.0078125 133.03125 C-4.71628021 146.93382681 -26.08063747 153.58742259 -46.01831055 153.35107422 C-64.9033633 152.69599537 -81.15887034 146.26034117 -96 135 C-97.485 134.01 -97.485 134.01 -99 133 C-99 132.34 -99 131.68 -99 131 C-99.55171875 130.79632812 -100.1034375 130.59265625 -100.671875 130.3828125 C-103.9033827 128.46342706 -105.96894649 125.79692474 -108.25 122.875 C-108.72872559 122.26333984 -109.20745117 121.65167969 -109.70068359 121.02148438 C-113.18007997 116.41943992 -116.04121685 111.65432231 -118.625 106.5 C-118.95532227 105.84241699 -119.28564453 105.18483398 -119.62597656 104.50732422 C-121.45918992 100.6654188 -122.33327886 97.17644183 -123 93 C-123.66 92.67 -124.32 92.34 -125 92 C-131.50498548 72.83394974 -125.88424593 48.59276854 -117.8125 30.875 C-107.56879482 11.6360412 -90.19563847 -2.01167608 -69.76953125 -9.125 C-45.19098419 -16.46035912 -22.01963166 -11.9402228 0 0 Z M-73.66015625 43.35546875 C-82.17742472 52.98183061 -83.74683341 63.6926157 -83.17919922 76.00830078 C-82.30270526 85.75004159 -76.73971785 93.70762039 -69.75 100.1875 C-59.30324251 108.72212777 -48.01084049 110.03393583 -35 109 C-24.62687683 106.97180395 -16.27450026 100.69970037 -10.28125 92.109375 C-4.91133139 83.26865534 -2.44278492 73.79833692 -4.49609375 63.515625 C-7.51427181 52.53423139 -13.01214305 43.34692895 -22.83203125 37.23828125 C-40.66459355 27.78404732 -58.85405566 29.59879902 -73.66015625 43.35546875 Z " fill="#E01914" transform="translate(320,480)"/>
<path d="M0 0 C0.85207031 0.48339844 1.70414063 0.96679688 2.58203125 1.46484375 C21.23417877 13.05942194 34.16236329 31.74576813 39.28125 53.015625 C43.41888736 74.10490932 40.10977655 95.49900847 29 114 C15.14359371 134.31146385 -3.96540624 147.77553673 -28.26953125 152.49609375 C-49.42202928 155.35334218 -70.6912439 150.75109441 -88 138 C-92.25234086 134.59041914 -96.14325588 130.84564557 -100 127 C-100.74121094 126.28199219 -101.48242188 125.56398438 -102.24609375 124.82421875 C-107.3774517 119.51281316 -116 108.76827061 -116 101 C-116.66 100.67 -117.32 100.34 -118 100 C-118.97672633 97.08338664 -119.41469731 94.01656 -120 91 C-120.28230469 89.85917969 -120.28230469 89.85917969 -120.5703125 88.6953125 C-125.22744226 68.16458554 -121.80012656 46.09144511 -111.21875 27.9453125 C-98.294975 7.79037768 -80.58211825 -5.05562335 -57.3125 -10.8125 C-36.33529033 -14.86359266 -18.29905092 -10.38165095 0 0 Z M-60 36 C-61.051875 36.598125 -62.10375 37.19625 -63.1875 37.8125 C-73.11251032 45.53195247 -77.50071291 53.70278311 -80 66 C-81.09316587 77.47824166 -77.21444254 88.11853093 -70 97 C-62.53280265 104.45334356 -52.54767279 109.00467809 -41.9375 109.25 C-32.04450473 109.08539109 -23.65378213 106.23532058 -16 100 C-15.37351562 99.49726562 -14.74703125 98.99453125 -14.1015625 98.4765625 C-6.98601182 92.10674639 -2.68520822 83.00934314 -1.76171875 73.5625 C-1.45109889 62.83794054 -4.06471125 53.1184925 -11.1640625 44.92578125 C-11.76992188 44.29027344 -12.37578125 43.65476562 -13 43 C-13.78503906 42.15501953 -13.78503906 42.15501953 -14.5859375 41.29296875 C-22.71790882 33.45850858 -32.54646347 31.31114877 -43.47875977 31.47216797 C-49.58075437 31.74354085 -54.65950279 32.931603 -60 36 Z " fill="#E01914" transform="translate(841,480)"/>
<path d="M0 0 C0.87910538 -0.00525696 1.75821075 -0.01051392 2.66395569 -0.01593018 C5.54617507 -0.02904654 8.4278344 -0.02042341 11.31005859 -0.01025391 C13.32449448 -0.01227668 15.33892965 -0.01518982 17.35336304 -0.01895142 C21.56458544 -0.02336313 25.77561634 -0.0169795 29.98681641 -0.00292969 C35.37817389 0.01418347 40.769084 0.00430011 46.16042519 -0.01364708 C50.31604371 -0.02449726 54.47155645 -0.02103327 58.62717819 -0.0132637 C60.61505563 -0.01126626 62.60294275 -0.01370493 64.59080887 -0.02070236 C67.3693913 -0.02833954 70.14725241 -0.01668181 72.92578125 0 C73.74255844 -0.00607269 74.55933563 -0.01214539 75.40086365 -0.0184021 C80.24720612 0.03537395 83.67387692 0.62838653 87.83349609 3.38818359 C91.22291459 10.69676666 88.91045329 17.16482756 86.91552734 24.65771484 C86.58199326 25.96465386 86.25014312 27.27202363 85.91986084 28.57978821 C85.03318483 32.07139592 84.12371337 35.55668357 83.20976639 39.04123688 C82.26764302 42.64991445 81.34735089 46.26414567 80.42504883 49.87792969 C78.76594924 56.36646089 77.08974482 62.85040979 75.40508938 69.33234787 C73.44146991 76.89032625 71.50342519 84.45480563 69.56938171 92.020401 C68.39329755 96.62097608 67.21418966 101.22065151 66.0222168 105.81713867 C65.81018616 106.63812546 65.59815552 107.45911224 65.37969971 108.30497742 C64.99361428 109.79941713 64.60566138 111.29337647 64.215271 112.78669739 C63.22391636 116.63435196 62.4248134 120.45903066 61.83349609 124.38818359 C61.17349609 124.05818359 60.51349609 123.72818359 59.83349609 123.38818359 C59.50349609 122.31568359 59.17349609 121.24318359 58.83349609 120.13818359 C52.4083924 102.23739718 33.22251713 87.37655736 16.75439453 79.37841797 C12.83352156 77.5773893 8.86159086 75.93648252 4.83349609 74.38818359 C4.50349609 75.04818359 4.17349609 75.70818359 3.83349609 76.38818359 C3.83349609 75.39818359 3.83349609 74.40818359 3.83349609 73.38818359 C2.82158203 73.24509766 1.80966797 73.10201172 0.76708984 72.95458984 C-1.68039482 72.6021715 -4.12615232 72.23724004 -6.56884766 71.85302734 C-18.81674366 70.02599313 -30.86165036 69.63034737 -43.16650391 71.38818359 C-40.25538185 60.28901549 -36.66211091 49.45291335 -33.0065918 38.58056641 C-32.23658165 36.28081146 -31.4735832 33.97869723 -30.7175293 31.67431641 C-29.61608741 28.31822273 -28.49333509 24.96993678 -27.36572266 21.62255859 C-27.03424728 20.59950623 -26.70277191 19.57645386 -26.36125183 18.5223999 C-24.37507554 12.71812156 -22.25791126 7.12738858 -17.16650391 3.38818359 C-11.25881234 0.68239683 -6.44528891 -0.04815907 0 0 Z " fill="#E01914" transform="translate(824.16650390625,387.61181640625)"/>
<path d="M0 0 C1.32 0 2.64 0 4 0 C3.855625 0.71542969 3.71125 1.43085937 3.5625 2.16796875 C-0.42894916 23.5942896 2.9697518 46.50131314 15.3125 64.75 C15.98925781 65.67296875 16.66601562 66.5959375 17.36328125 67.546875 C18.90090214 69.85147147 19.42956549 71.35127892 20 74 C8.92517629 74.046417 -2.14962414 74.08191677 -13.22452545 74.10362434 C-18.36749212 74.11404484 -23.51039205 74.12817237 -28.65332031 74.15087891 C-33.61999667 74.17266911 -38.58660898 74.18458166 -43.55332947 74.18975449 C-45.44466662 74.19343916 -47.33600042 74.20063435 -49.22731018 74.21146011 C-51.88403803 74.22605716 -54.54050389 74.22797452 -57.19726562 74.22705078 C-58.36036758 74.23783661 -58.36036758 74.23783661 -59.54696655 74.24884033 C-64.67308352 74.2296556 -69.09260196 73.52654754 -74 72 C-77.88094941 67.99385867 -78 62.35193349 -78 57 C-77.27179534 50.00240831 -75.00062213 43.91236854 -69.875 38.9375 C-61.90441245 33.56601709 -53.48422496 29.07591604 -44.93487549 24.7069397 C-42.37658167 23.39943865 -39.82226207 22.08425892 -37.2677002 20.76948547 C-35.98785506 20.11083282 -34.70782722 19.45253506 -33.4276123 18.79460144 C-27.97933939 15.99382812 -22.54659571 13.16452252 -17.125 10.3125 C-16.39031494 9.92739258 -15.65562988 9.54228516 -14.89868164 9.14550781 C-11.59507422 7.40541904 -8.33679264 5.62196606 -5.1171875 3.73046875 C-2 2 -2 2 0 2 C0 1.34 0 0.68 0 0 Z " fill="#E01A14" transform="translate(176,536)"/>
<path d="M0 0 C11.83034731 -0.0694002 23.66064649 -0.1227604 35.49115562 -0.15543652 C40.98408555 -0.17111656 46.47687659 -0.19239742 51.96972656 -0.22631836 C57.26705929 -0.2588285 62.56425813 -0.27683538 67.86168289 -0.28463173 C69.88638035 -0.29019028 71.91107019 -0.30104422 73.93571091 -0.31719017 C76.76378169 -0.3388536 79.59129368 -0.3419716 82.41943359 -0.34057617 C83.26316025 -0.351362 84.1068869 -0.36214783 84.97618103 -0.3732605 C87.30477905 -0.36076355 87.30477905 -0.36076355 91 0 C91.99 1.485 91.99 1.485 93 3 C61.32 3 29.64 3 -3 3 C-2.01 2.67 -1.02 2.34 0 2 C0 1.34 0 0.68 0 0 Z " fill="#E43027" transform="translate(815,388)"/>
<path d="M0 0 C1.41100983 0.00022659 1.41100983 0.00022659 2.8505249 0.00045776 C4.36165863 0.01594162 4.36165863 0.01594162 5.90332031 0.03173828 C7.45965179 0.03598312 7.45965179 0.03598312 9.04742432 0.04031372 C12.35888232 0.05150213 15.67006915 0.07660451 18.98144531 0.10205078 C21.22753515 0.1120823 23.47362924 0.12120785 25.71972656 0.12939453 C31.22372522 0.15143708 36.72756589 0.18490146 42.23144531 0.22705078 C42.23144531 0.55705078 42.23144531 0.88705078 42.23144531 1.22705078 C26.39144531 1.55705078 10.55144531 1.88705078 -5.76855469 2.22705078 C-6.09855469 3.21705078 -6.42855469 4.20705078 -6.76855469 5.22705078 C-7.42855469 5.22705078 -8.08855469 5.22705078 -8.76855469 5.22705078 C-9.09855469 13.14705078 -9.42855469 21.06705078 -9.76855469 29.22705078 C-10.09855469 29.22705078 -10.42855469 29.22705078 -10.76855469 29.22705078 C-13.10071016 9.65360303 -13.10071016 9.65360303 -8.76855469 2.22705078 C-5.8056249 0.30779072 -3.49169961 -0.01877258 0 0 Z " fill="#E75147" transform="translate(583.7685546875,387.77294921875)"/>
<path d="M0 0 C15.10352925 0.52771367 30.00751444 2.13405782 45 4 C45 4.33 45 4.66 45 5 C35.04538849 6.30148631 26.00565988 5.53021387 16.11669922 4.24658203 C12.1551954 3.78509197 8.17063964 3.61290254 4.1875 3.44140625 C2 3 2 3 0 0 Z " fill="#E41C16" transform="translate(622,517)"/>
<path d="M0 0 C0.33 0 0.66 0 1 0 C1.78509961 10.93905458 1.78509961 10.93905458 -1.3125 15.125 C-15.46336419 24.99769595 -40.52017275 19.67046257 -57 19 C-57 18.67 -57 18.34 -57 18 C-55.90647217 18.00523682 -54.81294434 18.01047363 -53.6862793 18.01586914 C-49.58049354 18.03414089 -45.47471129 18.04551204 -41.36889648 18.05493164 C-39.60098666 18.05992164 -37.83308089 18.06671601 -36.06518555 18.07543945 C-19.66568505 19.31986032 -19.66568505 19.31986032 -4.9375 14.6875 C-1.32033753 9.6701456 -0.61201273 6.12012732 0 0 Z " fill="#E54C43" transform="translate(512,469)"/>
<path d="M0 0 C13.70683222 -0.12385692 27.31702148 0.1769637 41 1 C41 1.33 41 1.66 41 2 C23.66023663 2.63353911 6.35422229 3.17412263 -11 3 C-11 2.67 -11 2.34 -11 2 C-5.555 1.505 -5.555 1.505 0 1 C0 0.67 0 0.34 0 0 Z " fill="#E62721" transform="translate(515,497)"/>
<path d="M0 0 C5.94174528 8.91261792 5.20157639 21.67480922 5 32 C2.49909067 29.07002749 1.5896716 27.09090041 1.26953125 23.26171875 C1.18896484 22.35873047 1.10839844 21.45574219 1.02539062 20.52539062 C0.95513672 19.58888672 0.88488281 18.65238281 0.8125 17.6875 C0.73064453 16.76259766 0.64878906 15.83769531 0.56445312 14.88476562 C0.14340897 9.90653764 -0.08956523 4.99498384 0 0 Z " fill="#E42923" transform="translate(354,524)"/>
<path d="M0 0 C0 0.33 0 0.66 0 1 C-10.23 1 -20.46 1 -31 1 C-31 0.67 -31 0.34 -31 0 C-20.82222273 -3.29665793 -10.2592215 -2.87978147 0 0 Z " fill="#E73D35" transform="translate(145,609)"/>
<path d="M0 0 C0 0.33 0 0.66 0 1 C-1.25554688 0.97679687 -2.51109375 0.95359375 -3.8046875 0.9296875 C-12.46803561 0.81806426 -20.55999482 0.82457231 -29 3 C-31.36701146 3.48497039 -33.58314252 3.79859521 -36 4 C-36.66 3.34 -37.32 2.68 -38 2 C-25.55209226 -1.36213585 -12.7373774 -2.49910569 0 0 Z " fill="#E6342C" transform="translate(815,469)"/>
<path d="M0 0 C0.66 0 1.32 0 2 0 C3.31855095 2.24664262 4.62993972 4.49697306 5.9375 6.75 C6.31068359 7.38421875 6.68386719 8.0184375 7.06835938 8.671875 C8.85536764 11.76291632 10.24885273 14.51467668 11 18 C10.34 18 9.68 18 9 18 C9 17.34 9 16.68 9 16 C6.36 16 3.72 16 1 16 C1 15.67 1 15.34 1 15 C2.65 14.67 4.3 14.34 6 14 C5.505 13.21625 5.01 12.4325 4.5 11.625 C3 9 3 9 3 7 C2.34 7 1.68 7 1 7 C0.67 4.69 0.34 2.38 0 0 Z " fill="#E42820" transform="translate(711,592)"/>
<path d="M0 0 C1.11991797 3.36315792 0.85748516 5.57005937 0.00390625 8.984375 C-0.22490234 9.91894531 -0.45371094 10.85351562 -0.68945312 11.81640625 C-0.93630859 12.78449219 -1.18316406 13.75257813 -1.4375 14.75 C-1.68048828 15.73355469 -1.92347656 16.71710938 -2.17382812 17.73046875 C-2.77428331 20.15583673 -3.38326726 22.57872945 -4 25 C-4.66 24.67 -5.32 24.34 -6 24 C-5.68773767 17.08338946 -5.10157034 5.10157034 0 0 Z " fill="#E62D25" transform="translate(890,487)"/>
<path d="M0 0 C0.66 0.33 1.32 0.66 2 1 C0.88786134 4.49529294 -0.31573191 7.74469192 -2 11 C-3.72945653 10.85764543 -5.45855654 10.71095618 -7.1875 10.5625 C-8.63189453 10.44068359 -8.63189453 10.44068359 -10.10546875 10.31640625 C-12.78649602 10.02333849 -15.3662986 9.57296246 -18 9 C-18 8.67 -18 8.34 -18 8 C-13.38 8 -8.76 8 -4 8 C-2.68 5.36 -1.36 2.72 0 0 Z " fill="#E92E26" transform="translate(711,504)"/>
<path d="M0 0 C8.81718081 2.09845222 16.70870057 5.32015162 22 13 C19.525 12.505 19.525 12.505 17 12 C16.67 11.01 16.34 10.02 16 9 C12.91656769 7.05857966 9.44695474 6.12400698 6 5 C5.34 4.67 4.68 4.34 4 4 C4 3.34 4 2.68 4 2 C3.01 2.33 2.02 2.66 1 3 C0.67 2.01 0.34 1.02 0 0 Z " fill="#E62D24" transform="translate(532,429)"/>
<path d="M0 0 C0.66 0 1.32 0 2 0 C1.88979143 3.08404808 1.75924186 6.16691192 1.625 9.25 C1.5940625 10.12269531 1.563125 10.99539063 1.53125 11.89453125 C1.49257813 12.73886719 1.45390625 13.58320312 1.4140625 14.453125 C1.3826416 15.22817383 1.3512207 16.00322266 1.31884766 16.80175781 C0.96973494 19.20865742 0.19448896 20.89602295 -1 23 C-2.19067752 17.78766344 -1.77438473 13.34254025 -1.0625 8.125 C-0.96259766 7.34125 -0.86269531 6.5575 -0.75976562 5.75 C-0.51421053 3.83233162 -0.25817071 1.91601075 0 0 Z " fill="#E42E28" transform="translate(880,547)"/>
<path d="M0 0 C1.32 0 2.64 0 4 0 C3.34 3.96 2.68 7.92 2 12 C1 10 0 8 -1 6 C-1.86625 6.2784375 -1.86625 6.2784375 -2.75 6.5625 C-5.20692525 7.04023546 -6.64397534 6.75729364 -9 6 C-2.25 2 -2.25 2 0 2 C0 1.34 0 0.68 0 0 Z " fill="#E9342A" transform="translate(176,536)"/>
<path d="M0 0 C3.63 0.33 7.26 0.66 11 1 C11 1.33 11 1.66 11 2 C15.24733832 2.98142381 19.47324533 3.30920379 23.8125 3.5625 C24.85180664 3.62727539 24.85180664 3.62727539 25.91210938 3.69335938 C27.60788686 3.79861453 29.30392052 3.89972863 31 4 C31 4.33 31 4.66 31 5 C20.19380948 5.38339966 10.53253112 4.5423351 0 2 C0 1.34 0 0.68 0 0 Z " fill="#E7453C" transform="translate(253,628)"/>
<path d="M0 0 C0.99 0 1.98 0 3 0 C2.7834375 0.87398437 2.7834375 0.87398437 2.5625 1.765625 C1.01885182 8.58340445 0.78433846 15.02694354 1 22 C0.01 22 -0.98 22 -2 22 C-1.85895309 19.08302989 -1.71235186 16.1665198 -1.5625 13.25 C-1.50352539 12.0125 -1.50352539 12.0125 -1.44335938 10.75 C-1.40146484 9.95078125 -1.35957031 9.1515625 -1.31640625 8.328125 C-1.27974854 7.5949707 -1.24309082 6.86181641 -1.20532227 6.10644531 C-0.99885215 3.98822395 -0.56867914 2.0480544 0 0 Z " fill="#E62822" transform="translate(761,536)"/>
<path d="M0 0 C0 0.66 0 1.32 0 2 C-1.36125 2.6496875 -1.36125 2.6496875 -2.75 3.3125 C-5.90748415 4.81304519 -5.90748415 4.81304519 -8 6.625 C-10.5917638 8.40683761 -12.91037631 8.6489064 -16 9 C-12.52836944 4.73936249 -5.68877082 0 0 0 Z " fill="#E63027" transform="translate(125,565)"/>
<path d="M0 0 C3.45831586 -0.02894547 6.91660072 -0.04678 10.375 -0.0625 C11.35984375 -0.07087891 12.3446875 -0.07925781 13.359375 -0.08789062 C14.77089844 -0.09272461 14.77089844 -0.09272461 16.2109375 -0.09765625 C17.51490479 -0.10551147 17.51490479 -0.10551147 18.84521484 -0.11352539 C21 0 21 0 23 1 C23 1.66 23 2.32 23 3 C15.41 2.34 7.82 1.68 0 1 C0 0.67 0 0.34 0 0 Z " fill="#E9372E" transform="translate(625,503)"/>
<path d="M0 0 C0.33 0 0.66 0 1 0 C1.19504458 2.10348074 1.38078496 4.20782585 1.5625 6.3125 C1.66691406 7.48425781 1.77132812 8.65601563 1.87890625 9.86328125 C2 13 2 13 1 16 C0.34 16 -0.32 16 -1 16 C-1 17.98 -1 19.96 -1 22 C-1.99 22 -2.98 22 -4 22 C-3.79503906 21.24976563 -3.59007812 20.49953125 -3.37890625 19.7265625 C-1.64572339 13.14212617 -0.43604086 6.79622301 0 0 Z " fill="#E7322A" transform="translate(839,546)"/>
<path d="M0 0 C0.33 0.66 0.66 1.32 1 2 C8.26 2 15.52 2 23 2 C23 2.33 23 2.66 23 3 C11.12 3.99 11.12 3.99 -1 5 C-0.67 3.35 -0.34 1.7 0 0 Z " fill="#EB3229" transform="translate(782,454)"/>
<path d="M0 0 C0.99 0.33 1.98 0.66 3 1 C3.58984375 2.734375 3.58984375 2.734375 4 5 C4.51246442 6.752469 5.03362512 8.50241346 5.5625 10.25 C5.83191406 11.14203125 6.10132813 12.0340625 6.37890625 12.953125 C6.58386719 13.62859375 6.78882813 14.3040625 7 15 C6.34 15.66 5.68 16.32 5 17 C4.87625 16.360625 4.7525 15.72125 4.625 15.0625 C4.41875 14.381875 4.2125 13.70125 4 13 C3.34 12.67 2.68 12.34 2 12 C1.3671875 9.27734375 1.3671875 9.27734375 0.875 5.9375 C0.70742188 4.83277344 0.53984375 3.72804688 0.3671875 2.58984375 C0.24601563 1.73519531 0.12484375 0.88054688 0 0 Z " fill="#E52E27" transform="translate(721,568)"/>
<path d="M0 0 C0.12375 0.94875 0.2475 1.8975 0.375 2.875 C0.71687177 6.08667191 0.71687177 6.08667191 3 8 C5.20250992 8.46006346 5.20250992 8.46006346 7.625 8.625 C8.85089844 8.73714844 8.85089844 8.73714844 10.1015625 8.8515625 C10.72804688 8.90054688 11.35453125 8.94953125 12 9 C8.01647791 11.30903272 5.49885947 10.86516528 1 10 C1 9.34 1 8.68 1 8 C0.34 8 -0.32 8 -1 8 C-2.4606285 5.35261084 -3 4.10551666 -3 1 C-1 0 -1 0 0 0 Z " fill="#E62C24" transform="translate(404,599)"/>
<path d="M0 0 C0 0.33 0 0.66 0 1 C-1.44632813 1.18175781 -1.44632813 1.18175781 -2.921875 1.3671875 C-4.81679688 1.61855469 -4.81679688 1.61855469 -6.75 1.875 C-8.00296875 2.03742188 -9.2559375 2.19984375 -10.546875 2.3671875 C-13.53249683 2.91432634 -15.37596755 3.61641926 -18 5 C-20.75 4.625 -20.75 4.625 -23 4 C-15.93501061 -0.70999292 -8.19241175 -0.24577235 0 0 Z " fill="#E6453B" transform="translate(529,428)"/>
<path d="M0 0 C2.20826378 -0.02722517 4.41662638 -0.04649729 6.625 -0.0625 C7.85476563 -0.07410156 9.08453125 -0.08570313 10.3515625 -0.09765625 C13.67723791 -0.00863924 16.74047588 0.36313913 20 1 C19.67 1.66 19.34 2.32 19 3 C16.39521117 3.0809313 13.79293347 3.14045434 11.1875 3.1875 C10.08051758 3.22520508 10.08051758 3.22520508 8.95117188 3.26367188 C3.45025238 3.33834499 3.45025238 3.33834499 0.98828125 1.48828125 C0.66214844 0.99714844 0.33601563 0.50601563 0 0 Z " fill="#E9261F" transform="translate(413,574)"/>
<path d="M0 0 C0.33 0 0.66 0 1 0 C1.22245975 2.24864725 1.42746557 4.49902623 1.625 6.75 C1.74101563 8.00296875 1.85703125 9.2559375 1.9765625 10.546875 C1.99918498 13.8799199 1.8481346 15.30951833 0 18 C-0.66 18.66 -1.32 19.32 -2 20 C-1.34 13.4 -0.68 6.8 0 0 Z " fill="#E7352C" transform="translate(588,427)"/>
<path d="M0 0 C2.41015625 0.5390625 2.41015625 0.5390625 5.0625 1.625 C6.37927734 2.13933594 6.37927734 2.13933594 7.72265625 2.6640625 C10.2878486 4.16885802 10.97534579 5.25601076 12 8 C4.5 5 4.5 5 -3 2 C-2.01 1.34 -1.02 0.68 0 0 Z " fill="#E62A24" transform="translate(288,511)"/>
<path d="M0 0 C3.87511727 0.54984772 5.59576506 2.27555331 8.25 5.0625 C8.95640625 5.79597656 9.6628125 6.52945313 10.390625 7.28515625 C10.92171875 7.85105469 11.4528125 8.41695312 12 9 C11.34 9.66 10.68 10.32 10 11 C8.33035479 9.35718838 6.6643536 7.71067239 5 6.0625 C4.071875 5.14597656 3.14375 4.22945312 2.1875 3.28515625 C0 1 0 1 0 0 Z " fill="#E6241D" transform="translate(737,602)"/>
<path d="M0 0 C3.04049801 3.64859761 4.96518762 7.7444533 7 12 C6.34 12.66 5.68 13.32 5 14 C3.96692229 12.23628182 2.94887951 10.46374967 1.9375 8.6875 C1.36902344 7.70136719 0.80054688 6.71523438 0.21484375 5.69921875 C-1 3 -1 3 0 0 Z " fill="#E42721" transform="translate(201,581)"/>
<path d="M0 0 C1.91385532 2.87078299 2.96432952 5.33411656 4.125 8.5625 C4.47820312 9.53316406 4.83140625 10.50382813 5.1953125 11.50390625 C6 14 6 14 6 16 C5.34 16 4.68 16 4 16 C1.58314288 11.77050005 0.65166856 8.87664009 1 4 C0.34 3.67 -0.32 3.34 -1 3 C-0.67 2.01 -0.34 1.02 0 0 Z " fill="#E42923" transform="translate(180,578)"/>
<path d="M0 0 C3.21764451 4.82646677 4.36261136 10.19821824 4 16 C3.01 15.34 2.02 14.68 1 14 C0.48828125 10.7421875 0.48828125 10.7421875 0.3125 6.875 C0.24675781 5.59367188 0.18101562 4.31234375 0.11328125 2.9921875 C0.07589844 2.00476563 0.03851563 1.01734375 0 0 Z " fill="#E6312A" transform="translate(354,524)"/>
<path d="M0 0 C1.12341797 -0.03867187 1.12341797 -0.03867187 2.26953125 -0.078125 C2.90246094 0.03015625 3.53539062 0.1384375 4.1875 0.25 C4.8475 1.24 5.5075 2.23 6.1875 3.25 C0.2475 2.92 -5.6925 2.59 -11.8125 2.25 C-11.8125 1.92 -11.8125 1.59 -11.8125 1.25 C-7.86893646 0.57875514 -4.00079046 0.12947542 0 0 Z " fill="#E6382E" transform="translate(615.8125,499.75)"/>
<path d="M0 0 C4.59306496 1.4859916 7.43569245 3.85014682 11 7 C10.67 7.99 10.34 8.98 10 10 C8.51437458 8.90453883 7.03668291 7.79831177 5.5625 6.6875 C4.73878906 6.07261719 3.91507813 5.45773437 3.06640625 4.82421875 C1 3 1 3 0 0 Z " fill="#E5221B" transform="translate(852,471)"/>
<path d="M0 0 C0.66 0.33 1.32 0.66 2 1 C2 1.66 2 2.32 2 3 C0.03125 4.5078125 0.03125 4.5078125 -2.5 6.125 C-3.3353125 6.66382813 -4.170625 7.20265625 -5.03125 7.7578125 C-5.6809375 8.16773438 -6.330625 8.57765625 -7 9 C-7 6 -7 6 -5.46875 4.39453125 C-4.49421875 3.61142578 -4.49421875 3.61142578 -3.5 2.8125 C-2.8503125 2.28269531 -2.200625 1.75289063 -1.53125 1.20703125 C-1.0259375 0.80871094 -0.520625 0.41039062 0 0 Z " fill="#E62C24" transform="translate(499,435)"/>
<path d="M0 0 C0.66 0.33 1.32 0.66 2 1 C1.49202991 5.3177458 0.80317221 9.03302114 -1 13 C-3 10 -3 10 -2.5390625 7.51953125 C-2.23742187 6.62621094 -1.93578125 5.73289062 -1.625 4.8125 C-1.32851563 3.91144531 -1.03203125 3.01039063 -0.7265625 2.08203125 C-0.48679687 1.39496094 -0.24703125 0.70789063 0 0 Z " fill="#E52720" transform="translate(877,569)"/>
<path d="M0 0 C5.77759884 -0.12036664 11.27959989 0.1679418 17 1 C17 1.33 17 1.66 17 2 C14.9190156 2.24959784 12.83499188 2.47394907 10.75 2.6875 C9.58984375 2.81511719 8.4296875 2.94273437 7.234375 3.07421875 C3.67533206 2.99254989 2.51822275 2.42472438 0 0 Z " fill="#E8382F" transform="translate(650,520)"/>
<path d="M0 0 C5.61 0.33 11.22 0.66 17 1 C17 1.33 17 1.66 17 2 C12.05 2.33 7.1 2.66 2 3 C1.34 2.01 0.68 1.02 0 0 Z " fill="#E73A31" transform="translate(622,517)"/>
<path d="M0 0 C-2 2 -2 2 -5.0390625 2.1953125 C-6.22242188 2.17210937 -7.40578125 2.14890625 -8.625 2.125 C-9.81351563 2.10695313 -11.00203125 2.08890625 -12.2265625 2.0703125 C-13.14179687 2.04710937 -14.05703125 2.02390625 -15 2 C-15 1.67 -15 1.34 -15 1 C-13.25215171 0.63536268 -11.50159498 0.2836922 -9.75 -0.0625 C-8.28820312 -0.35833984 -8.28820312 -0.35833984 -6.796875 -0.66015625 C-4.131881 -0.98397535 -2.51128277 -0.85503199 0 0 Z " fill="#E6251E" transform="translate(814,588)"/>
<path d="M0 0 C0.33 0 0.66 0 1 0 C2.33132964 5.93046841 1.75748347 8.79142012 -1 14 C-1.66 14.66 -2.32 15.32 -3 16 C-2.86722656 15.34773437 -2.73445313 14.69546875 -2.59765625 14.0234375 C-1.65517178 9.3591713 -0.74231297 4.70131546 0 0 Z " fill="#E5332A" transform="translate(373,560)"/>
<path d="M0 0 C2.31 0.33 4.62 0.66 7 1 C6.67 5.62 6.34 10.24 6 15 C5.67 15 5.34 15 5 15 C4.67 10.38 4.34 5.76 4 1 C2.68 0.67 1.36 0.34 0 0 Z " fill="#E9413A" transform="translate(699,526)"/>
<path d="M0 0 C1.98 0.495 1.98 0.495 4 1 C3.01 1.495 3.01 1.495 2 2 C2.33 2.99 2.66 3.98 3 5 C6.00847418 6.22520264 6.00847418 6.22520264 9 7 C7.375 8.1875 7.375 8.1875 5 9 C1.75 7.625 1.75 7.625 -1 6 C-0.67 4.02 -0.34 2.04 0 0 Z " fill="#E62B24" transform="translate(445,479)"/>
<path d="M0 0 C0.66 0.33 1.32 0.66 2 1 C0.28158532 3.86402446 -0.84116098 4.92902938 -3.9375 6.3125 C-6.97562373 6.99452778 -8.12975467 6.86169352 -11 6 C-10.18595703 5.60167969 -10.18595703 5.60167969 -9.35546875 5.1953125 C-8.64003906 4.84210938 -7.92460938 4.48890625 -7.1875 4.125 C-6.47980469 3.77695312 -5.77210938 3.42890625 -5.04296875 3.0703125 C-2.78753582 1.9343514 -2.78753582 1.9343514 0 0 Z " fill="#E52C25" transform="translate(576,466)"/>
<path d="M0 0 C1.44098611 0.76429661 2.87766054 1.53672555 4.3125 2.3125 C5.11300781 2.74175781 5.91351562 3.17101562 6.73828125 3.61328125 C8.83787272 4.90059554 10.35447721 6.18406708 12 8 C7.24518354 7.42365861 4.02951788 5.44931479 0 3 C0 2.01 0 1.02 0 0 Z " fill="#E62D24" transform="translate(648,395)"/>
<path d="M0 0 C0.33 0 0.66 0 1 0 C1.33 4.29 1.66 8.58 2 13 C1.34 13 0.68 13 0 13 C-0.33 14.32 -0.66 15.64 -1 17 C-0.67 11.39 -0.34 5.78 0 0 Z " fill="#E53E36" transform="translate(194,536)"/>
<path d="M0 0 C0.99 0 1.98 0 3 0 C3.55827609 1.26362492 4.09612097 2.5362919 4.625 3.8125 C4.92664063 4.52019531 5.22828125 5.22789062 5.5390625 5.95703125 C5.69117188 6.63121094 5.84328125 7.30539062 6 8 C5.01 9.485 5.01 9.485 4 11 C3.32880451 9.5437455 2.66318193 8.08492133 2 6.625 C1.62875 5.81289063 1.2575 5.00078125 0.875 4.1640625 C0 2 0 2 0 0 Z " fill="#E62A23" transform="translate(365,510)"/>
<path d="M0 0 C2 0 2 0 3.54296875 1.42578125 C4.08566406 2.04839844 4.62835937 2.67101562 5.1875 3.3125 C5.73792969 3.92738281 6.28835938 4.54226563 6.85546875 5.17578125 C7.42201172 6.07876953 7.42201172 6.07876953 8 7 C7.67 7.99 7.34 8.98 7 10 C6.01164277 9.09325024 5.03464519 8.17410978 4.0625 7.25 C3.51722656 6.73953125 2.97195313 6.2290625 2.41015625 5.703125 C0.83955308 3.80621924 0.41268714 2.40298839 0 0 Z " fill="#E52720" transform="translate(864,480)"/>
<path d="M0 0 C0.99 0.33 1.98 0.66 3 1 C3.9765625 7.0546875 3.9765625 7.0546875 4 9 C3.34 9.66 2.68 10.32 2 11 C2 10.01 2 9.02 2 8 C1.34 7.67 0.68 7.34 0 7 C-1.09036928 4.0262656 -1.03864166 3.11592499 0 0 Z " fill="#E5312A" transform="translate(195,565)"/>
<path d="M0 0 C0.88336837 2.4667645 1.1312406 3.63859372 0.22265625 6.140625 C-0.16019531 6.83671875 -0.54304687 7.5328125 -0.9375 8.25 C-1.31777344 8.95640625 -1.69804687 9.6628125 -2.08984375 10.390625 C-2.39019531 10.92171875 -2.69054687 11.4528125 -3 12 C-3.66 11.67 -4.32 11.34 -5 11 C-3.77472971 6.94718288 -2.30119506 3.55639236 0 0 Z " fill="#E5251E" transform="translate(206,505)"/>
<path d="M0 0 C0.33 0.99 0.66 1.98 1 3 C-0.21484375 5.26171875 -0.21484375 5.26171875 -1.9375 7.6875 C-2.50339844 8.49574219 -3.06929687 9.30398438 -3.65234375 10.13671875 C-4.09707031 10.75160156 -4.54179688 11.36648438 -5 12 C-5.68359375 10.265625 -5.68359375 10.265625 -6 8 C-4.78515625 5.859375 -4.78515625 5.859375 -3.0625 3.75 C-2.49660156 3.04359375 -1.93070313 2.3371875 -1.34765625 1.609375 C-0.90292969 1.07828125 -0.45820312 0.5471875 0 0 Z " fill="#E5231C" transform="translate(721,490)"/>
<path d="M0 0 C-1.17744585 3.53233755 -1.95605641 3.86308075 -5.0625 5.6875 C-5.79597656 6.12449219 -6.52945313 6.56148437 -7.28515625 7.01171875 C-7.85105469 7.33785156 -8.41695312 7.66398438 -9 8 C-8.39958856 4.47165622 -8.12314151 4.09432115 -5.0625 1.75 C-2 0 -2 0 0 0 Z " fill="#E5251F" transform="translate(257,514)"/>
<path d="M0 0 C1.32 0 2.64 0 4 0 C4 2.31 4 4.62 4 7 C2.35 5.68 0.7 4.36 -1 3 C-0.67 2.01 -0.34 1.02 0 0 Z " fill="#E82E27" transform="translate(348,482)"/>
<path d="M0 0 C0.66 0 1.32 0 2 0 C0.66511872 3.59391114 -0.96022723 6.75490696 -3 10 C-3.75 8.375 -3.75 8.375 -4 6 C-2.1875 2.75 -2.1875 2.75 0 0 Z " fill="#E5261E" transform="translate(346,589)"/>
<path d="M0 0 C3.93673644 1.31224548 6.22719294 2.91910327 9 6 C5.21213403 5.4739075 2.82847776 4.61896089 0 2 C0 1.34 0 0.68 0 0 Z " fill="#E52922" transform="translate(838,479)"/>
<path d="M0 0 C1.41687119 4.25061356 0.19320039 6.71851625 -1 11 C-1.66 11 -2.32 11 -3 11 C-2.67 8.03 -2.34 5.06 -2 2 C-1.34 2 -0.68 2 0 2 C0 1.34 0 0.68 0 0 Z " fill="#E42E25" transform="translate(908,416)"/>
<path d="M0 0 C0.99 0 1.98 0 3 0 C2.75 1.875 2.75 1.875 2 4 C-0.0625 5.25 -0.0625 5.25 -2 6 C-1.125 1.125 -1.125 1.125 0 0 Z " fill="#E6251D" transform="translate(405,592)"/>
<path d="M0 0 C1.53690745 2.41040161 2.09752136 3.50082285 1.5390625 6.359375 C1.23742187 7.14828125 0.93578125 7.9371875 0.625 8.75 C0.32851563 9.54921875 0.03203125 10.3484375 -0.2734375 11.171875 C-0.51320313 11.77515625 -0.75296875 12.3784375 -1 13 C-2.07310858 9.72814447 -1.89263102 7.57052408 -1.0625 4.25 C-0.86785156 3.45078125 -0.67320312 2.6515625 -0.47265625 1.828125 C-0.31667969 1.22484375 -0.16070312 0.6215625 0 0 Z " fill="#E42D25" transform="translate(452,465)"/>
<path d="M0 0 C4.31392226 0.4793247 6.16569547 1.7457985 9 5 C5.30581799 5 3.22163822 3.71820705 0 2 C0 1.34 0 0.68 0 0 Z " fill="#E5251F" transform="translate(841,465)"/>
<path d="M0 0 C0.33 0.99 0.66 1.98 1 3 C-2.3 3 -5.6 3 -9 3 C-9 2.34 -9 1.68 -9 1 C-5.8035914 -0.06546953 -3.34252724 -0.07427838 0 0 Z " fill="#E62C26" transform="translate(171,607)"/>
<path d="M0 0 C2.64 1.98 5.28 3.96 8 6 C6.68 6.33 5.36 6.66 4 7 C1.75 5.25 1.75 5.25 0 3 C0 2.01 0 1.02 0 0 Z " fill="#E52B25" transform="translate(325,484)"/>
<path d="M0 0 C0.66 0.33 1.32 0.66 2 1 C0.86280581 4.41158256 -0.04342944 5.11854601 -3 7 C-3.66 7 -4.32 7 -5 7 C-3.70700306 4.11562221 -2.34058637 2.12780579 0 0 Z " fill="#E62921" transform="translate(807,391)"/>
<path d="M0 0 C0.66 0.33 1.32 0.66 2 1 C1.67 1.99 1.34 2.98 1 4 C-1.95784231 5.22393475 -3.99727245 4.96516243 -7 4 C-1.7265625 0.77734375 -1.7265625 0.77734375 0 0 Z " fill="#E72B21" transform="translate(174,538)"/>
<path d="M0 0 C1.60080151 4.00200378 0.29279692 7.04556236 -1 11 C-3 8 -3 8 -2.75 4.9375 C-2 2 -2 2 0 0 Z " fill="#E4332B" transform="translate(895,468)"/>
<path d="M0 0 C4.7517398 0.43197635 6.92000054 1.32769295 10 5 C5.59885603 4.49701212 3.28804981 2.91227269 0 0 Z " fill="#E62821" transform="translate(722,447)"/>
<path d="M0 0 C2.3125 1.3125 2.3125 1.3125 3.3125 4.3125 C0.0125 3.3225 -3.2875 2.3325 -6.6875 1.3125 C-2.6875 -0.6875 -2.6875 -0.6875 0 0 Z " fill="#E9372D" transform="translate(454.6875,576.6875)"/>
<path d="M0 0 C0.66 0.33 1.32 0.66 2 1 C0.25 6.75 0.25 6.75 -2 9 C-3 6 -3 6 -1.5625 2.8125 C-1.046875 1.884375 -0.53125 0.95625 0 0 Z " fill="#E5251D" transform="translate(711,504)"/>
<path d="M0 0 C2.64 1.65 5.28 3.3 8 5 C6.68 5.33 5.36 5.66 4 6 C1.75 4.1875 1.75 4.1875 0 2 C0 1.34 0 0.68 0 0 Z " fill="#E6342B" transform="translate(696,427)"/>
<path d="M0 0 C3.465 1.98 3.465 1.98 7 4 C6.01 4.66 5.02 5.32 4 6 C2.68 5.34 1.36 4.68 0 4 C0 2.68 0 1.36 0 0 Z " fill="#E62A22" transform="translate(672,411)"/>
<path d="M0 0 C0.66 0 1.32 0 2 0 C2 0.66 2 1.32 2 2 C2.99 2.33 3.98 2.66 5 3 C5.33 4.65 5.66 6.3 6 8 C1.125 3.375 1.125 3.375 0 0 Z " fill="#E5372F" transform="translate(730,592)"/>
<path d="M0 0 C4.75 0.75 4.75 0.75 7 3 C6.67 3.99 6.34 4.98 6 6 C3.97945196 4.35830472 1.97956942 2.69088222 0 1 C0 0.67 0 0.34 0 0 Z " fill="#E62923" transform="translate(463,584)"/>
<path d="M0 0 C0.66 0 1.32 0 2 0 C1.01 2.97 0.02 5.94 -1 9 C-1.33 9 -1.66 9 -2 9 C-2.25 3.375 -2.25 3.375 0 0 Z " fill="#E32C25" transform="translate(240,529)"/>
<path d="M0 0 C2.31 1.65 4.62 3.3 7 5 C5.68 5.33 4.36 5.66 3 6 C1.25 4.75 1.25 4.75 0 3 C0 2.01 0 1.02 0 0 Z " fill="#E52924" transform="translate(848,485)"/>
<path d="M0 0 C0.66 0.33 1.32 0.66 2 1 C1.67 1.99 1.34 2.98 1 4 C-2.5625 5.1875 -2.5625 5.1875 -6 6 C-4 4 -2 2 0 0 Z " fill="#E62A24" transform="translate(229,481)"/>
<path d="M0 0 C-1.5625 1.5625 -1.5625 1.5625 -4 3 C-7.75 2.6875 -7.75 2.6875 -11 2 C-11 1.67 -11 1.34 -11 1 C-3.375 -1.125 -3.375 -1.125 0 0 Z " fill="#E63E34" transform="translate(420,477)"/>
<path d="M0 0 C2.64 0.33 5.28 0.66 8 1 C8 1.66 8 2.32 8 3 C8.66 3.33 9.32 3.66 10 4 C5.78087253 3.5205537 3.20336822 2.83374881 0 0 Z " fill="#E4231D" transform="translate(817,457)"/>
<path d="M0 0 C0.99 0.495 0.99 0.495 2 1 C1.67 1.99 1.34 2.98 1 4 C0.67 2.68 0.34 1.36 0 0 Z " fill="#E5473E" transform="translate(721,576)"/>
<path d="M0 0 C2 1 2 1 2 1 Z " fill="#E64C43" transform="translate(729,595)"/>
<path d="" fill="#E14940" transform="translate(0,0)"/>
<path d="M0 0 C2 1 2 1 2 1 Z " fill="#E54840" transform="translate(192,570)"/>
<path d="M0 0 C2 1 2 1 2 1 Z " fill="#DF5147" transform="translate(128,560)"/>
<path d="" fill="#E7433B" transform="translate(0,0)"/>
<path d="" fill="#E7453E" transform="translate(0,0)"/>
<path d="M0 0 C2 1 2 1 2 1 Z " fill="#E54A41" transform="translate(350,511)"/>
<path d="M0 0 C2 1 2 1 2 1 Z " fill="#E9483E" transform="translate(513,501)"/>
<path d="M0 0 C2 1 2 1 2 1 Z " fill="#E9473C" transform="translate(508,501)"/>
<path d="" fill="#E44940" transform="translate(0,0)"/>
<path d="M0 0 C2 1 2 1 2 1 Z " fill="#E1493F" transform="translate(828,472)"/>
<path d="M0 0 C2 1 2 1 2 1 Z " fill="#E64940" transform="translate(843,469)"/>
<path d="M0 0 C2 1 2 1 2 1 Z " fill="#E55B4F" transform="translate(290,467)"/>
<path d="" fill="#6C6B68" transform="translate(0,0)"/>
<path d="" fill="#E5554B" transform="translate(0,0)"/>
<path d="" fill="#E85144" transform="translate(0,0)"/>
<path d="" fill="#E54C45" transform="translate(0,0)"/>
<path d="" fill="#E84C45" transform="translate(0,0)"/>
<path d="" fill="#E14541" transform="translate(0,0)"/>
<path d="" fill="#E34A3F" transform="translate(0,0)"/>
<path d="" fill="#E74C45" transform="translate(0,0)"/>
<path d="" fill="#E15249" transform="translate(0,0)"/>
<path d="" fill="#E34D43" transform="translate(0,0)"/>
<path d="" fill="#E8544A" transform="translate(0,0)"/>
<path d="" fill="#E54740" transform="translate(0,0)"/>
<path d="" fill="#E44640" transform="translate(0,0)"/>
<path d="" fill="#E34A3F" transform="translate(0,0)"/>
<path d="" fill="#E74940" transform="translate(0,0)"/>
<path d="" fill="#E74940" transform="translate(0,0)"/>
<path d="" fill="#E74B42" transform="translate(0,0)"/>
<path d="" fill="#E54942" transform="translate(0,0)"/>
<path d="" fill="#E84F45" transform="translate(0,0)"/>
<path d="" fill="#E44C46" transform="translate(0,0)"/>
<path d="" fill="#E25147" transform="translate(0,0)"/>
<path d="" fill="#E64841" transform="translate(0,0)"/>
<path d="" fill="#E5463E" transform="translate(0,0)"/>
<path d="" fill="#E14740" transform="translate(0,0)"/>
<path d="" fill="#E14741" transform="translate(0,0)"/>
<path d="" fill="#E54841" transform="translate(0,0)"/>
<path d="" fill="#E74841" transform="translate(0,0)"/>
<path d="" fill="#E24841" transform="translate(0,0)"/>
<path d="" fill="#E0413B" transform="translate(0,0)"/>
<path d="" fill="#E74A40" transform="translate(0,0)"/>
<path d="" fill="#E35047" transform="translate(0,0)"/>
<path d="" fill="#E05046" transform="translate(0,0)"/>
<path d="" fill="#E35245" transform="translate(0,0)"/>
<path d="" fill="#E84942" transform="translate(0,0)"/>
<path d="" fill="#E54139" transform="translate(0,0)"/>
<path d="" fill="#E5443C" transform="translate(0,0)"/>
<path d="" fill="#E8453E" transform="translate(0,0)"/>
<path d="" fill="#E84A42" transform="translate(0,0)"/>
<path d="" fill="#E64239" transform="translate(0,0)"/>
<path d="" fill="#E54B40" transform="translate(0,0)"/>
<path d="" fill="#E74A42" transform="translate(0,0)"/>
<path d="" fill="#E3433B" transform="translate(0,0)"/>
<path d="" fill="#E64B41" transform="translate(0,0)"/>
<path d="" fill="#E5443B" transform="translate(0,0)"/>
<path d="" fill="#E65248" transform="translate(0,0)"/>
<path d="" fill="#E05248" transform="translate(0,0)"/>
<path d="" fill="#E7584D" transform="translate(0,0)"/>
<path d="" fill="#DF594D" transform="translate(0,0)"/>
<path d="" fill="#E94B42" transform="translate(0,0)"/>
<path d="" fill="#DE5D52" transform="translate(0,0)"/>
<path d="" fill="#E5594E" transform="translate(0,0)"/>
<path d="" fill="#DE5B53" transform="translate(0,0)"/>
<path d="" fill="#DF5B53" transform="translate(0,0)"/>
<path d="" fill="#E3473F" transform="translate(0,0)"/>
<path d="" fill="#E4443A" transform="translate(0,0)"/>
<path d="" fill="#E74B41" transform="translate(0,0)"/>
<path d="" fill="#E74A3F" transform="translate(0,0)"/>
<path d="" fill="#E64B40" transform="translate(0,0)"/>
<path d="" fill="#E5483F" transform="translate(0,0)"/>
<path d="" fill="#E0413B" transform="translate(0,0)"/>
<path d="" fill="#E5534A" transform="translate(0,0)"/>
<path d="" fill="#E35249" transform="translate(0,0)"/>
<path d="" fill="#E5483C" transform="translate(0,0)"/>
<path d="" fill="#E35549" transform="translate(0,0)"/>
<path d="" fill="#E4544B" transform="translate(0,0)"/>
<path d="" fill="#E4463F" transform="translate(0,0)"/>
<path d="" fill="#E45950" transform="translate(0,0)"/>
<path d="" fill="#E94941" transform="translate(0,0)"/>
<path d="" fill="#E44940" transform="translate(0,0)"/>
<path d="" fill="#E74E45" transform="translate(0,0)"/>
<path d="" fill="#E84C41" transform="translate(0,0)"/>
<path d="" fill="#E64A41" transform="translate(0,0)"/>
<path d="" fill="#E55D4F" transform="translate(0,0)"/>
<path d="" fill="#E5554B" transform="translate(0,0)"/>
<path d="" fill="#E0544A" transform="translate(0,0)"/>
<path d="" fill="#E45348" transform="translate(0,0)"/>
<path d="" fill="#E6564C" transform="translate(0,0)"/>
<path d="" fill="#E34E44" transform="translate(0,0)"/>
<path d="" fill="#E54038" transform="translate(0,0)"/>
<path d="" fill="#E1564A" transform="translate(0,0)"/>
<path d="" fill="#E26156" transform="translate(0,0)"/>
<path d="" fill="#E4574D" transform="translate(0,0)"/>
</svg>
